<?xml version="1.0" encoding="utf-8"?>
<!-- Generator: Adobe Illustrator 22.1.0, SVG Export Plug-In . SVG Version: 6.00 Build 0)  -->
<svg version="1.1" id="Layer_1" xmlns="http://www.w3.org/2000/svg" xmlns:xlink="http://www.w3.org/1999/xlink" x="0px" y="0px"
	 viewBox="0 0 250.9 115" style="enable-background:new 0 0 250.9 115;" xml:space="preserve">
<style type="text/css">
	.st0{fill:#6D6E71;}
</style>
<g>
	<g>
		<path class="st0" d="M40.1,43.6c1.1,0.5,1.1,1.8,0.8,3.2c3.2-4.8,6.7-9.4,10-13.9c-14.8,0.8-20.4-12.1-39.1,1.6
			c19.3-15.9,24.9-1.3,39.8-2.4c4.2-5.4,8.1-10.2,12.5-14.6c4.1-4.1,8.4-7.7,10.8-7.7c1.2,0,1.4,1,1.3,1.9c-0.7,3.3-5.6,8.6-8,11.2
			c-4.3,4.6-9.8,9-15.6,9.8c-4.9,6.8-9.3,13.7-11.8,17.7c-3.1,5.2-6.3,11.2-4.2,11.8c1.4,0.4,3-0.8,4.8-2.6c1.8-1.9,3.7-4.6,5.6-7.2
			c0.2-0.3,0.7-0.1,0.4,0.2c-2,2.7-3.8,5.3-5.7,7.3c-1.8,1.9-3.6,3.1-5.1,2.8c-2.7-0.5-2.2-3.7-0.8-7c-1.3,1.8-2.6,3.3-3.8,4.6
			c-1.2,1.2-4,3.7-5.8,2.4C21.8,59.8,33.5,40.4,40.1,43.6z M39.7,48.7c0.6-1.3,1.5-4,0.2-4.7c-4.6-2.2-15.6,16.2-13.3,18.4
			c1.2,1.2,4.3-1.6,5-2.3c1.8-1.8,3.5-4.3,5.3-6.7c0.6-1.2,1.3-2.3,1.8-3.3C39,49.6,39.4,49.2,39.7,48.7z M75.6,11.6
			c0.1-0.6,0.1-1.3-0.7-1.3c-2.3,0-6.7,3.9-10.3,7.7c-4.3,4.6-8,9.2-11.5,13.9c4.3-0.7,9-3.3,14.6-9.3C70,20,75,14.8,75.6,11.6z"/>
		<path class="st0" d="M58.9,43.6c1.1,0.5,1.1,1.8,0.8,3.1c2.9-4.2,4.6-4.1,4.2-3.3c-1,1.6-12.1,17.9-8.7,18.9
			c1.4,0.4,3-0.8,4.8-2.6c1.8-1.9,3.7-4.6,5.6-7.2c0.2-0.3,0.7-0.1,0.4,0.2c-2,2.7-3.8,5.3-5.7,7.3c-1.8,1.9-3.6,3.1-5.1,2.8
			c-2.7-0.5-2.1-3.8-0.7-7.1c-1.3,1.8-2.6,3.4-3.8,4.7c-1.2,1.2-4,3.7-5.8,2.4C40.5,59.8,52.3,40.4,58.9,43.6z M58.5,48.5
			c0.6-1.3,1.5-3.8,0.2-4.5C54,41.8,43,60.2,45.4,62.3c1.2,1.2,4.3-1.6,5-2.3c1.8-1.8,3.6-4.3,5.4-6.8
			C56.8,51.2,57.9,49.5,58.5,48.5z"/>
		<path class="st0" d="M85.1,59.9c-1.8,1.9-3.7,3.1-5.2,2.8c-1.7-0.3-1.8-2.3-1.7-3.7c0.7-4.6,5-8.6,6.3-13.1
			c0.2-0.7,0.6-2.3-0.4-2.5c-1.3-0.4-3,0.8-4.8,2.6c-1.8,1.9-3.7,4.4-5.5,7c-1.2,2.3-2.5,4.3-2.9,5c-3.3,5.4-5.4,5.3-4.9,4.5
			c1-1.6,12.1-17.9,8.7-18.9c-0.9-0.2-2.2,0.8-3.6,2.3c-1.9,2.2-3.4,4.4-5.1,6.6c-0.3,0.3-0.7,0.1-0.4-0.2c1.9-2.5,3.3-4.8,5.2-6.8
			c1.5-1.6,2.7-2.5,3.8-2.4c2.6,0.5,2,3.8,0.6,7.1c1.3-1.7,2.5-3.3,3.8-4.6c1.8-1.9,3.6-3.1,5.2-2.8c1.8,0.3,1.8,2.3,1.7,3.7
			c-0.7,4.7-5,8.6-6.3,13.1c-0.2,0.7-0.5,2.3,0.4,2.5c1.4,0.4,3-0.8,4.8-2.6c1.8-1.9,3.7-4.6,5.6-7.2c0.2-0.3,0.7-0.1,0.4,0.2
			C88.8,55.3,86.9,58,85.1,59.9z"/>
		<path class="st0" d="M102.3,43.6c1.1,0.5,1.1,1.8,0.8,3.1c2.9-4.2,4.6-4.1,4.2-3.3c-1,1.6-12.1,17.9-8.7,18.9
			c1.4,0.4,3-0.8,4.8-2.6c1.8-1.9,3.7-4.6,5.6-7.2c0.3-0.3,0.7-0.1,0.4,0.2c-2,2.7-3.8,5.3-5.7,7.3c-1.8,1.9-3.6,3.1-5.1,2.8
			C96,62.3,96.6,59,98,55.7c-1.3,1.8-2.6,3.4-3.8,4.7c-1.2,1.2-4,3.7-5.8,2.4C83.9,59.8,95.7,40.4,102.3,43.6z M101.9,48.5
			c0.6-1.3,1.5-3.8,0.2-4.5c-4.6-2.2-15.6,16.2-13.3,18.4c1.2,1.2,4.3-1.6,5-2.3c1.8-1.8,3.6-4.3,5.4-6.8
			C100.2,51.2,101.3,49.5,101.9,48.5z"/>
		<path class="st0" d="M142.1,63.3c-0.1,1.3-0.1,2.5,0.2,3.7c4.1,0.2,8.2,0.8,12,2c21.9,7,6.3,19.2-6.7,7.4c-3-2.7-5-5.6-6-8.8
			c-14.1-0.2-29.6,5.6-41,13.4c-24,16.8-7.4,32.8,15.3,22c11.3-5.5,19.5-15.4,19.5-27.8c0-0.4,0.4-0.2,0.4,0
			c0.3,12.9-9,23.3-19.7,28.2c-24.6,11.3-41.1-6.8-17.3-23.2C109.3,73,126,66.7,141.4,67c-0.3-1.1-0.4-2.2-0.4-3.3
			c-0.4-7.9,4.8-10.9,6.8-17.8c0.2-0.7,0.6-2.3-0.4-2.5c-1.3-0.4-3,0.8-4.8,2.6c-1.7,1.8-3.4,4.1-5.1,6.4c-1.3,2.3-2.5,4.3-2.9,5
			c-3.4,5.5-5.5,5.4-5,4.6c1-1.6,12.1-17.9,8.7-18.9c-1.4-0.4-3,0.8-4.8,2.6c-1.7,1.8-3.4,4.3-5.2,6.7c-1.3,2.6-2.8,4.8-3.3,5.6
			c-3.3,5.4-5.4,5.3-4.9,4.5c1-1.6,12.1-17.9,8.7-18.9c-0.9-0.2-2.2,0.8-3.6,2.3c-1.9,2.2-3.4,4.4-5.1,6.6c-0.3,0.3-0.7,0.1-0.4-0.2
			c1.9-2.5,3.3-4.8,5.2-6.8c1.5-1.6,2.7-2.5,3.8-2.4c2.5,0.5,2.1,3.5,0.8,6.8c1.3-1.7,2.4-3.3,3.7-4.5c1.8-1.9,3.6-3.1,5.1-2.8
			c2.7,0.5,2,3.9,0.5,7.4c1.2-1.6,2.3-3.1,3.5-4.3c1.8-1.9,3.6-3.1,5.2-2.8c1.8,0.3,1.8,2.3,1.7,3.7
			C148.2,52.7,142.5,56.8,142.1,63.3z M142.4,67.6c0.7,2.9,2.3,5.7,5.4,8.4c12.8,11.3,26.5-0.2,6.2-6.6
			C150.4,68.3,146.4,67.7,142.4,67.6z"/>
		<path class="st0" d="M163.5,43.6c1.1,0.5,1.1,1.8,0.8,3.1c2.9-4.2,4.6-4.1,4.2-3.3c-1,1.6-12.1,17.9-8.7,18.9
			c1.4,0.4,3-0.8,4.8-2.6c1.8-1.9,3.7-4.6,5.6-7.2c0.2-0.3,0.7-0.1,0.4,0.2c-2,2.7-3.8,5.3-5.7,7.3c-1.8,1.9-3.6,3.1-5.1,2.8
			c-2.7-0.5-2.1-3.8-0.7-7.1c-1.3,1.8-2.6,3.4-3.8,4.7c-1.2,1.2-4,3.7-5.8,2.4C145.2,59.8,156.9,40.4,163.5,43.6z M163.1,48.5
			c0.6-1.3,1.5-3.8,0.2-4.5c-4.6-2.2-15.6,16.2-13.3,18.4c1.2,1.2,4.3-1.6,5-2.3c1.8-1.8,3.6-4.3,5.4-6.8
			C161.5,51.2,162.5,49.5,163.1,48.5z"/>
		<path class="st0" d="M172.6,62.8c-1.8-0.3-1.8-2.3-1.7-3.7c0.3-2.8,2.1-5.8,3.4-8.4c0.8-1.6,1.7-3.8,2.1-6.1
			c-1.8,2.7-4.2,5.7-5.8,8.1c-0.2,0.3-0.7,0.1-0.4-0.2l6.5-9v-0.1c0.2-1.3,0.2-5.2,1.3-5.9c0.4-0.2,0.9-0.1,1.2,0.3
			c0.9,1.5-1.2,4.5-2,5.8c-0.2,3.5,0.8,4.8-1.7,9c-1.8,3.3-2.9,5.6-3.3,7.2c-0.2,0.7-0.6,2.3,0.4,2.5c1.4,0.4,3-0.8,4.8-2.6
			c1.8-1.9,3.7-4.6,5.6-7.2c0.2-0.3,0.7-0.1,0.4,0.2c-2,2.7-3.8,5.3-5.7,7.3C176,61.8,174.2,63,172.6,62.8L172.6,62.8z M177.3,42.6
			c0.8-1.3,2.1-3.6,1.5-4.6c-0.2-0.2-0.3-0.2-0.5-0.2c-0.8,0.5-0.9,3.6-1,4.6V42.6z"/>
		<path class="st0" d="M197.2,45.7c1.5-1.6,2.7-2.5,3.8-2.4c2.6,0.5,2,3.8,0.6,7.1c1.3-1.7,2.5-3.3,3.8-4.6c1.8-1.9,3.6-3.1,5.2-2.8
			c1.8,0.3,1.8,2.3,1.7,3.7c-0.7,4.7-5,8.6-6.3,13.1c-0.2,0.7-0.5,2.3,0.4,2.5c1.4,0.4,3-0.8,4.8-2.6c1.8-1.9,3.7-4.6,5.6-7.2
			c0.2-0.3,0.7-0.1,0.4,0.2c-1.9,2.7-3.8,5.3-5.7,7.3c-1.8,1.9-3.7,3.1-5.2,2.8c-1.7-0.3-1.8-2.3-1.7-3.7c0.7-4.6,5-8.6,6.3-13.1
			c0.2-0.7,0.6-2.3-0.4-2.5c-1.3-0.4-3,0.8-4.8,2.6c-1.8,1.9-3.7,4.4-5.5,7c-1.2,2.3-2.5,4.3-2.9,5c-3.3,5.4-5.4,5.3-4.9,4.5
			c1-1.6,12.1-17.9,8.7-18.9c-0.9-0.2-2.2,0.8-3.6,2.3c-3.8,4.3-6.3,9.6-10.4,13.9c-1.8,1.9-3.6,3.1-5.1,2.8
			c-5.3-1,2.4-12.9,3.6-14.9c3.4-5.5,5.5-5.4,5-4.6c-1,1.6-12.1,17.9-8.7,18.9c1.4,0.4,3-0.8,4.8-2.6
			C191.1,55,193.5,49.7,197.2,45.7z M194.6,37.4c0.1,0.9-2.3,3.2-2.3,2.7C192,38.5,194.4,36.5,194.6,37.4z"/>
		<path class="st0" d="M228.3,55.5c-1.3-0.1-2.3-0.8-2.8-1.8c-1.3,2-4.3,6.7-7.3,8.5c-1.2,0.8-2.4,1.2-3.4,0.5
			c-4.4-2.9,7.3-22.4,13.9-19.2c1.9,0.9,0.5,4.4-0.2,5.7c-0.2,0.3-0.6,0.1-0.5-0.2c0.5-1,2-4.3,0.4-5.1
			c-4.6-2.2-15.6,16.2-13.3,18.4c1,1,3.5-0.9,4.6-1.9c2.3-2.3,4.5-5.7,5.4-7.3c-0.5-1.3-0.5-3.3,0.1-4.6c0.8-2,2.8-1.8,2.3,0.6
			c-0.2,1.4-1.1,2.8-1.8,4.1c0.4,0.9,1.3,1.7,2.5,1.7c1.8,0.1,3.3-1.1,4.2-2.5c0.2-0.3,0.7-0.1,0.4,0.2
			C231.9,54.2,230.2,55.6,228.3,55.5z M227.1,49.1c0.3-1.8-0.8-1.8-1.3-0.3c-0.5,1.2-0.5,2.7-0.2,3.8
			C226.2,51.5,227,50.3,227.1,49.1z"/>
	</g>
	<g>
		<path class="st0" d="M173.2,77.1v-0.2c0.2-0.1,0.3-0.2,0.4-0.3c0-0.2,0-0.5,0-0.8c0-0.6,0-1,0-1.3v-1.8c0-0.3,0-0.6,0-1
			c0-0.2,0-0.4-0.1-0.5c0,0-0.1-0.1-0.1-0.1c-0.1,0-0.3-0.1-0.6-0.1v-0.3c0.4,0,0.8,0,1.1,0c0.3,0,0.6,0,1,0c0.4,0,0.8,0,1,0
			c0.7,0,1.3,0.1,1.7,0.3s0.8,0.5,1.1,0.9s0.5,1,0.5,1.6c0,0.4-0.1,0.9-0.2,1.3s-0.3,0.7-0.6,1s-0.5,0.5-0.8,0.7s-0.6,0.3-0.9,0.4
			c-0.3,0.1-0.7,0.1-1.3,0.1c-0.2,0-0.4,0-0.7,0c-0.4,0-0.7,0-0.8,0C174,77,173.7,77.1,173.2,77.1z M174.6,76.6
			c0.3,0.1,0.7,0.1,1,0.1c0.4,0,0.7,0,1-0.1s0.5-0.2,0.7-0.3c0.2-0.1,0.4-0.3,0.6-0.5s0.3-0.5,0.4-0.9c0.1-0.4,0.2-0.7,0.2-1.1
			c0-0.5-0.1-1-0.3-1.4c-0.2-0.4-0.5-0.7-0.9-0.9s-0.9-0.3-1.6-0.3c-0.4,0-0.7,0-1.1,0.1c0,0.1,0,0.4,0,0.8l0,0.6v1.8l0,1.4
			C174.6,76,174.6,76.3,174.6,76.6z"/>
		<path class="st0" d="M184.6,77.1v-0.3c0.3,0,0.5,0,0.6-0.1c0,0,0.1,0,0.1-0.1c0-0.1,0-0.2,0.1-0.5c0-0.4,0-0.7,0-1v-2.2
			c0-0.4,0-0.8,0-1.2c0-0.3,0-0.4-0.1-0.5c0-0.1-0.1-0.1-0.2-0.1c-0.1,0-0.3,0-0.6,0v-0.3l1.3,0l1.3,0c0.6,0,1.1,0,1.4,0
			c0.3,0,0.6,0,0.8,0c0,0.2-0.1,0.3-0.1,0.4c0,0,0,0.3-0.1,0.9h-0.3c0-0.3,0-0.6-0.1-0.8c-0.2-0.1-0.3-0.1-0.5-0.1
			c-0.3,0-0.7-0.1-1-0.1c-0.1,0-0.2,0-0.5,0s-0.4,0-0.5,0c0,0.3,0,0.6,0,0.9l0,1.5c0.3,0,0.7,0,0.9,0c0.3,0,0.6,0,0.9,0
			c0.1,0,0.2,0,0.2-0.1s0-0.2,0.1-0.4l0-0.3h0.3V73l0,0.9l0,1h-0.3l0-0.3c0-0.2,0-0.4-0.1-0.4s-0.1-0.1-0.2-0.1
			c-0.2,0-0.5-0.1-1-0.1c-0.2,0-0.5,0-0.8,0c0,0.3,0,0.7,0,1.3c0,0.5,0,1,0,1.2c0.4,0,0.9,0,1.4,0c0.4,0,0.6,0,0.8,0
			s0.3-0.1,0.4-0.1c0-0.1,0.1-0.2,0.1-0.4c0.1-0.3,0.1-0.5,0.1-0.6h0.3c-0.1,0.6-0.1,1.1-0.1,1.5c-0.3,0-0.6,0.1-0.9,0.1l-2.6,0
			C185.7,77,185.3,77.1,184.6,77.1z"/>
		<path class="st0" d="M194.6,76.9c0-0.3,0.1-0.7,0.1-1.4h0.3c0,0.4,0,0.7,0.1,0.8c0,0.1,0.1,0.2,0.2,0.2s0.3,0.2,0.5,0.2
			c0.2,0.1,0.4,0.1,0.6,0.1c0.3,0,0.6-0.1,0.8-0.2c0.2-0.1,0.4-0.3,0.5-0.5s0.2-0.5,0.2-0.7c0-0.2,0-0.4-0.1-0.5
			c-0.1-0.1-0.1-0.3-0.3-0.3c-0.1-0.1-0.3-0.1-0.4-0.2c-0.1,0-0.3,0-0.7-0.1s-0.6-0.1-0.8-0.1c-0.3-0.1-0.5-0.2-0.7-0.3
			s-0.3-0.3-0.3-0.5s-0.1-0.4-0.1-0.7c0-0.3,0.1-0.7,0.3-1c0.2-0.3,0.4-0.5,0.8-0.7c0.4-0.2,0.7-0.3,1.1-0.3c0.2,0,0.5,0,0.8,0.1
			c0.3,0.1,0.6,0.2,0.8,0.3c0,0.2-0.1,0.4-0.1,0.5c0,0.2,0,0.4,0,0.7H198c0-0.5,0-0.7,0-0.7c-0.1-0.1-0.2-0.2-0.3-0.3
			c-0.3-0.2-0.6-0.3-0.9-0.3c-0.4,0-0.8,0.1-1,0.4c-0.3,0.3-0.4,0.6-0.4,1c0,0.2,0,0.4,0.1,0.6c0.1,0.1,0.3,0.2,0.5,0.3
			c0.2,0.1,0.4,0.1,0.8,0.2s0.7,0.1,1,0.2c0.3,0.1,0.5,0.2,0.6,0.3c0.1,0.1,0.2,0.3,0.3,0.4c0.1,0.2,0.1,0.4,0.1,0.6
			c0,0.6-0.2,1.1-0.7,1.5s-1.1,0.6-1.9,0.6C195.6,77.2,195,77.1,194.6,76.9z"/>
		<path class="st0" d="M206.3,76.8v0.3c-0.6,0-1,0-1.2,0l-1.4,0v-0.3c0.3,0,0.6,0,0.6,0s0.1-0.1,0.2-0.1c0-0.1,0.1-0.2,0.1-0.4
			c0-0.1,0-0.5,0-1.2v-2c0-0.4,0-0.8,0-1.2c0-0.3,0-0.4-0.1-0.5s-0.1-0.1-0.2-0.1c-0.1,0-0.3,0-0.6,0v-0.3c0.6,0,1,0,1.3,0
			c0.3,0,0.7,0,1.3,0v0.3c-0.3,0-0.6,0-0.6,0c-0.1,0-0.1,0.1-0.2,0.1c0,0.1-0.1,0.2-0.1,0.4c0,0.1,0,0.5,0,1.2v2c0,0.4,0,0.8,0,1.2
			c0,0.3,0,0.4,0.1,0.5s0.1,0.1,0.2,0.1C205.7,76.8,206,76.8,206.3,76.8z"/>
		<path class="st0" d="M217.3,76.7c-0.4,0.2-0.8,0.3-1.1,0.3c-0.5,0.1-1,0.1-1.4,0.1c-0.7,0-1.3-0.1-1.8-0.4
			c-0.5-0.3-0.9-0.6-1.2-1.1s-0.4-1-0.4-1.7c0-0.6,0.1-1.1,0.3-1.5c0.2-0.4,0.5-0.7,0.8-1s0.6-0.4,0.9-0.6c0.5-0.2,1.1-0.3,1.7-0.3
			c0.3,0,0.7,0,1,0.1c0.4,0.1,0.8,0.2,1.2,0.3c0,0.1-0.1,0.3-0.1,0.4s-0.1,0.4-0.1,0.9h-0.3l0-0.5c0-0.1,0-0.1,0-0.2s0-0.1-0.1-0.2
			c-0.1-0.1-0.2-0.2-0.4-0.3c-0.3-0.1-0.5-0.2-0.7-0.2S215.2,71,215,71c-0.6,0-1,0.1-1.4,0.4s-0.7,0.6-0.9,1s-0.3,0.9-0.3,1.5
			c0,0.6,0.1,1.1,0.4,1.6c0.2,0.5,0.6,0.8,1,1.1s0.9,0.4,1.4,0.4c0.3,0,0.5,0,0.8-0.1c0.2,0,0.4-0.1,0.6-0.2c0-0.1,0-0.3,0-0.6v-0.5
			c0-0.3,0-0.4,0-0.5s-0.1-0.1-0.2-0.1c-0.1,0-0.4,0-0.8-0.1v-0.3l1.4,0c0.3,0,0.5,0,0.8,0l0,0.2l-0.3,0.2c0,0.3-0.1,0.6-0.1,0.9
			S217.3,76.4,217.3,76.7z"/>
		<path class="st0" d="M222.7,77.1v-0.3c0.3,0,0.5,0,0.6-0.1c0,0,0.1,0,0.1-0.1c0-0.1,0-0.2,0.1-0.5c0-0.4,0-0.7,0-1v-3.6
			c0-0.1,0-0.2,0-0.2c0-0.1-0.1-0.1-0.2-0.2c-0.1,0-0.1-0.1-0.2-0.1c-0.1,0-0.2,0-0.5,0v-0.3c0.5,0,0.8,0,0.9,0c0.2,0,0.4,0,0.6,0
			c0.2,0.3,0.4,0.6,0.5,0.7l0.9,1.1l1.3,1.6c0.4,0.5,0.8,0.9,1,1.2c0.2,0.2,0.3,0.3,0.4,0.5v-3.2c0-0.3,0-0.6,0-1
			c0-0.2,0-0.4-0.1-0.5c0,0-0.1-0.1-0.1-0.1c-0.1,0-0.3-0.1-0.6-0.1v-0.3c0.3,0,0.7,0,1.1,0c0.3,0,0.6,0,0.9,0v0.3
			c-0.3,0-0.5,0-0.6,0.1c0,0-0.1,0-0.1,0.1c0,0.1,0,0.2-0.1,0.5c0,0.4,0,0.7,0,1v2.1c0,0.4,0,1.2,0,2.4l-0.5-0.1l-0.1,0c0,0,0,0,0,0
			c0,0-0.1-0.1-0.2-0.2c-0.2-0.3-0.4-0.5-0.5-0.6l-0.6-0.7l-3.1-3.7v3.4c0,0.3,0,0.6,0,1c0,0.2,0,0.4,0.1,0.4c0,0,0.1,0.1,0.1,0.1
			c0.1,0,0.3,0.1,0.6,0.1v0.3c-0.3,0-0.5,0-0.9,0C223.4,77.1,223.1,77.1,222.7,77.1z"/>
	</g>
</g>
</svg>
