<svg id="Layer_1" data-name="Layer 1" xmlns="http://www.w3.org/2000/svg" xmlns:xlink="http://www.w3.org/1999/xlink" viewBox="0 0 144 144"><defs><clipPath id="clip-path"><circle cx="72" cy="72" r="62.38" fill="#6d6e71"/></clipPath></defs><title>DanaMarinoDesignLogo-DM-Circle</title><circle cx="72" cy="72" r="62.38" fill="#6d6e71"/><g clip-path="url(#clip-path)"><path d="M117.61,107.87a74.58,74.58,0,0,0-19.93-3.32,22,22,0,0,1-.28-6.09c.69-10.93,10.1-17.71,11.49-27.81.27-2.35.14-5.54-2.77-6.09-2.63-.41-5.54,1.52-8.58,4.71a80.89,80.89,0,0,0-5.81,7.19c2.49-5.81,3.6-11.48-.83-12.31-2.49-.42-5.4,1.52-8.44,4.7a70.75,70.75,0,0,0-6.09,7.47c2.21-5.39,2.9-10.37-1.25-11.21-1.93-.13-3.87,1.39-6.36,4-3,3.25-15.18,19.92-18.08,23.11s-5.68,5-8,4.29c-3.46-1,1.8-10.94,6.92-19.52,4-6.64,11.35-18,19.51-29.33C78.77,46.3,87.76,39,95,31.35c4-4.29,12.18-13,13.28-18.54.28-1.52-.14-3.19-2.07-3.19-3.88,0-11.07,6-17.85,12.74A242.4,242.4,0,0,0,67.56,46.57c-24.77,1.8-34-22.28-66,4C32.55,27.89,42,49.34,66.45,48c-5.53,7.33-11.34,15.08-16.6,23,.55-2.22.55-4.43-1.25-5.26-10.93-5.26-30.44,27-23.11,31.82,3.05,2.08,7.75-2.07,9.69-4a75.88,75.88,0,0,0,6.36-7.61c-2.35,5.54-3.18,10.79,1.25,11.62,2.49.42,5.4-1.52,8.44-4.7s14.9-19.37,18.08-23c2.35-2.49,4.43-4.15,6-3.87,5.67,1.52-12.73,28.64-14.39,31.27C60,98.6,63.5,98.74,69,89.75c.83-1.25,3.19-5,5.4-9.28A136.76,136.76,0,0,1,83,69.4c3-3,5.67-5,8-4.29,5.67,1.53-12.73,28.65-14.39,31.28-.84,1.38,2.62,1.52,8.3-7.61.69-1.11,2.77-4.43,4.84-8.31a103.17,103.17,0,0,1,8.44-10.65c2.91-3,5.68-5,7.89-4.29,1.66.42,1,3,.69,4.15C103.63,81,94.91,86,95.6,99.15a23.81,23.81,0,0,0,.7,5.4c-25.6-.55-53.28,10-70.58,21.87-39.44,27.26-12.17,57.28,28.65,38.46,17.71-8.16,33.21-25.46,32.65-46.77,0-.27-.69-.69-.69,0,0,20.62-13.7,37-32.38,46.08-37.64,17.85-65-8.71-25.32-36.53,18.82-12.87,44.56-22.42,67.94-22.14,1.66,5.4,5,10.24,10,14.67C128.12,139.7,153.86,119.5,117.61,107.87ZM89.15,23.19c6.09-6.23,13.42-12.73,17.16-12.73,1.24,0,1.24,1.24,1.1,2.21-1,5.26-9.27,14-13.14,18.27C85,40.9,77.11,45.19,70.05,46.3A239.91,239.91,0,0,1,89.15,23.19ZM34.49,92.93c-1.25,1.24-6.37,5.81-8.31,3.87-3.87-3.59,14.4-34,22-30.44,2.21,1.11.69,5.54-.28,7.75a22.22,22.22,0,0,0-1.52,2.35,62,62,0,0,0-3,5.4C40.3,85.87,37.39,90,34.49,92.93ZM107,119.5c-5.12-4.57-7.89-9.14-9-14a68.14,68.14,0,0,1,19.23,3C151,119.22,128.12,138.18,107,119.5Z" fill="#fff"/></g></svg>