<?xml version="1.0" encoding="utf-8"?>
<!-- Generator: Adobe Illustrator 14.0.0, SVG Export Plug-In . SVG Version: 6.00 Build 43363)  -->
<!DOCTYPE svg PUBLIC "-//W3C//DTD SVG 1.1//EN" "http://www.w3.org/Graphics/SVG/1.1/DTD/svg11.dtd">
<svg version="1.1" id="Layer_1" xmlns="http://www.w3.org/2000/svg" xmlns:xlink="http://www.w3.org/1999/xlink" x="0px" y="0px"
	 width="148.667px" height="148.667px" viewBox="0 0 148.667 148.667" enable-background="new 0 0 148.667 148.667"
	 xml:space="preserve">
<g>
	<defs>
		<circle id="SVGID_1_" cx="74.302" cy="74.245" r="72.89"/>
	</defs>
	<clipPath id="SVGID_2_">
		<use xlink:href="#SVGID_1_"  overflow="visible"/>
	</clipPath>
	<circle clip-path="url(#SVGID_2_)" fill="#58595B" cx="74.302" cy="74.245" r="72.89"/>
	<g clip-path="url(#SVGID_2_)">
		<path fill="#FFFFFF" d="M76.557,8.219h0.653c0.212,0,0.431,0.055,0.647,0.162c0.54,0.108,0.975,0.353,1.301,0.73
			c0.216,0.164,0.39,0.339,0.527,0.529c0.133,0.191,0.256,0.394,0.366,0.61c0.108,0.215,0.187,0.419,0.245,0.609
			c0.053,0.188,0.109,0.419,0.161,0.689c0.109,0.543,0.164,0.947,0.164,1.219c0.052,0.271,0.079,0.65,0.079,1.137
			c0,0.434-0.012,0.827-0.037,1.178c-0.032,0.353-0.07,0.744-0.125,1.178c-0.163,1.46-0.407,2.925-0.73,4.387l-0.487,2.192
			l-0.65,2.112c-0.759,2.709-1.651,5.497-2.681,8.366c-0.489,1.409-0.988,2.777-1.503,4.1c-0.516,1.329-1.07,2.669-1.664,4.022
			l-3.251,8.041l-3.41,8.041c-1.135,2.654-2.274,5.295-3.413,7.918c-1.135,2.629-2.248,5.295-3.329,8
			c-0.597,1.299-1.152,2.616-1.665,3.942c-0.516,1.325-1.042,2.667-1.585,4.018c-0.486,1.354-0.975,2.693-1.46,4.021
			c-0.486,1.327-0.947,2.664-1.381,4.02c-0.272,0.651-0.5,1.313-0.689,1.99c-0.192,0.677-0.367,1.339-0.528,1.988
			c-0.434,1.52-0.731,2.871-0.893,4.064l-0.326,1.946c-0.055,0.328-0.096,0.651-0.122,0.978c-0.029,0.322-0.042,0.624-0.042,0.891
			c0,0.274,0,0.545,0,0.813c0,0.273,0.055,0.516,0.164,0.73c0.163,0.543,0.434,0.894,0.813,1.057l0.73,0.244h0.812l0.894-0.244
			l0.811-0.487l0.893-0.569l0.731-0.65l1.542-1.463c0.92-1.132,1.788-2.247,2.599-3.326c0.434-0.598,0.84-1.193,1.219-1.788
			c0.379-0.594,0.785-1.19,1.219-1.785c0.756-1.189,1.503-2.411,2.235-3.659c0.73-1.247,1.445-2.487,2.152-3.736
			c0.378-0.597,0.73-1.219,1.054-1.87c0.325-0.646,0.65-1.297,0.975-1.945c0.379-0.597,0.703-1.221,0.978-1.872l0.972-1.946
			c0.215-0.489,0.571-0.624,1.057-0.408c0.489,0.22,0.622,0.569,0.407,1.057l-1.948,3.901c-0.328,0.648-0.665,1.298-1.016,1.943
			c-0.352,0.653-0.72,1.302-1.099,1.952c-0.704,1.247-1.421,2.496-2.149,3.736c-0.732,1.248-1.479,2.493-2.234,3.738
			c-0.435,0.595-0.854,1.191-1.26,1.79c-0.407,0.595-0.823,1.188-1.257,1.784c-0.434,0.597-0.894,1.18-1.381,1.748
			c-0.486,0.57-0.976,1.122-1.463,1.665c-0.271,0.272-0.527,0.539-0.77,0.813c-0.244,0.269-0.502,0.538-0.772,0.811
			c-0.272,0.269-0.556,0.527-0.853,0.771c-0.301,0.246-0.583,0.475-0.854,0.691c-0.704,0.539-1.463,0.92-2.274,1.137
			c-0.109,0-0.219,0.012-0.325,0.041c-0.111,0.027-0.217,0.038-0.323,0.038c-0.056,0.055-0.109,0.081-0.163,0.081h-0.487
			c-0.219,0-0.436,0-0.65,0c-0.217,0-0.463-0.053-0.733-0.16c-0.269-0.056-0.5-0.135-0.689-0.243c-0.189-0.108-0.42-0.22-0.692-0.33
			c-0.216-0.161-0.417-0.32-0.607-0.481c-0.19-0.166-0.342-0.357-0.448-0.572c-0.272-0.323-0.516-0.756-0.73-1.3
			c-0.109-0.215-0.191-0.42-0.243-0.607c-0.058-0.191-0.137-0.392-0.245-0.61c-0.109-0.433-0.177-0.853-0.205-1.26
			c-0.026-0.403-0.065-0.822-0.12-1.26c0-0.43,0.012-0.838,0.041-1.214c0.027-0.383,0.065-0.759,0.122-1.139
			c0.107-0.759,0.229-1.501,0.367-2.233c0.131-0.73,0.282-1.477,0.443-2.236c0-0.214,0.029-0.378,0.082-0.487l-0.973,1.709
			c-0.542,0.918-1.099,1.811-1.667,2.678c-0.569,0.867-1.175,1.708-1.828,2.519l-1.948,2.517c-0.218,0.161-0.405,0.355-0.571,0.569
			l-0.566,0.57c-0.164,0.214-0.342,0.404-0.528,0.565c-0.191,0.166-0.393,0.327-0.609,0.487c-0.379,0.381-0.815,0.732-1.301,1.057
			c-0.435,0.379-0.891,0.677-1.382,0.896c-0.974,0.539-2.002,1-3.086,1.381c-0.106,0-0.188,0.012-0.245,0.038
			c-0.051,0.029-0.135,0.042-0.241,0.042h-0.082l-0.162,0.081h-0.245c-0.163,0-0.335,0-0.527,0c-0.188,0-0.393-0.029-0.61-0.081
			c-0.433-0.058-0.839-0.22-1.217-0.489c-0.326-0.275-0.623-0.568-0.893-0.891c-0.433-0.49-0.787-1.108-1.057-1.87
			c-0.271-0.702-0.407-1.325-0.407-1.864c-0.053-0.275-0.093-0.574-0.123-0.896c-0.024-0.327-0.011-0.624,0.041-0.896
			c0-0.27,0-0.556,0-0.852c0-0.294,0.029-0.58,0.082-0.853c0.056-0.595,0.108-1.151,0.162-1.668c0.057-0.51,0.137-1.038,0.245-1.58
			c0.217-1.084,0.458-2.138,0.73-3.17c0.273-1.027,0.569-2.081,0.893-3.167c0.326-1.028,0.665-2.031,1.017-3.004
			c0.351-0.975,0.744-1.975,1.178-3.006c0.108-0.27,0.217-0.516,0.323-0.73c0.111-0.215,0.217-0.46,0.327-0.732l0.243-0.731
			c0.109-0.161,0.217-0.405,0.323-0.73c0.275-0.489,0.516-0.962,0.732-1.421c0.215-0.461,0.433-0.935,0.65-1.421
			c0.975-1.951,2.033-3.82,3.169-5.605l1.867-2.763c0.378-0.431,0.756-0.852,1.137-1.258c0.378-0.406,0.783-0.8,1.217-1.177
			c0.272-0.164,0.515-0.34,0.733-0.528c0.212-0.188,0.458-0.337,0.729-0.448c0.271-0.162,0.528-0.323,0.773-0.486
			c0.244-0.164,0.499-0.299,0.771-0.407c0.271-0.108,0.569-0.203,0.894-0.287c0.323-0.079,0.65-0.173,0.975-0.282
			c0.703-0.107,1.353-0.082,1.949,0.082c0.433,0.109,0.73,0.216,0.894,0.325c0.053,0,0.081,0.015,0.081,0.039
			c0,0.03,0.027,0.04,0.082,0.04h0.081l0.082,0.083c0.051,0.053,0.106,0.081,0.162,0.081l0.404,0.326
			c0.272,0.163,0.49,0.378,0.651,0.648l0.489,0.813c0.323,0.486,0.568,1.002,0.729,1.542c0.217,0.595,0.353,1.137,0.409,1.624
			c0.106,0.272,0.173,0.528,0.202,0.771c0.027,0.243,0.068,0.501,0.122,0.771c0,0.272,0.014,0.543,0.041,0.812
			c0.027,0.272,0.04,0.545,0.04,0.814c0.109,0.975,0.109,1.922,0,2.842c0.27-0.597,0.528-1.217,0.77-1.867
			c0.246-0.651,0.501-1.299,0.774-1.951c1.084-2.708,2.179-5.388,3.289-8.04c1.111-2.654,2.26-5.307,3.455-7.961l3.49-7.96
			l3.493-7.877c0.597-1.353,1.15-2.692,1.664-4.021c0.516-1.328,1.069-2.641,1.667-3.939c0.595-1.354,1.147-2.681,1.665-3.979
			c0.513-1.303,1.016-2.627,1.501-3.981l0.732-2.031l0.731-2.029c0.216-0.652,0.419-1.312,0.61-1.991
			c0.188-0.677,0.364-1.34,0.525-1.99c0.109-0.326,0.188-0.663,0.246-1.015c0.052-0.351,0.106-0.692,0.161-1.016
			c0.055-0.325,0.082-0.652,0.082-0.975c0-0.324,0-0.621,0-0.893c-0.109-0.703-0.243-1.22-0.407-1.544
			c-0.216-0.217-0.407-0.352-0.568-0.406l-0.325-0.162h-0.243L76.639,9.68h-0.082c-0.54,0-0.759-0.269-0.649-0.813
			C75.908,8.542,76.123,8.328,76.557,8.219z M50.403,81.562c0.271-0.975,0.501-1.946,0.692-2.925
			c0.188-0.973,0.338-1.974,0.444-3.002c0.108-0.487,0.166-0.987,0.166-1.501s0-1.017,0-1.504c0-0.973-0.082-1.949-0.244-2.924
			l-0.407-1.462c-0.111-0.216-0.202-0.417-0.284-0.609c-0.082-0.191-0.174-0.392-0.284-0.61l-0.407-0.568
			c-0.163-0.106-0.301-0.243-0.407-0.406c-0.053,0-0.094-0.014-0.121-0.041c-0.026-0.026-0.068-0.038-0.12-0.038l-0.083-0.082
			h-0.082l-0.079-0.083c-0.111,0-0.204-0.011-0.286-0.04c-0.082-0.027-0.176-0.041-0.282-0.041
			c-0.762-0.053-1.492,0.217-2.194,0.813c-0.543,0.486-1.137,1.19-1.787,2.11c-0.271,0.379-0.543,0.759-0.813,1.139
			c-0.272,0.379-0.542,0.783-0.812,1.217c-0.271,0.434-0.526,0.853-0.771,1.258c-0.243,0.407-0.474,0.826-0.694,1.26
			c-0.486,0.867-0.944,1.761-1.377,2.678c-0.434,0.924-0.868,1.844-1.301,2.763l-1.137,2.761l-0.566,1.465l-0.571,1.375
			c-0.378,0.978-0.732,1.938-1.057,2.886c-0.327,0.947-0.647,1.911-0.972,2.884c-0.275,0.923-0.543,1.869-0.815,2.843
			c-0.269,0.973-0.542,1.949-0.812,2.924c-0.107,0.434-0.2,0.893-0.282,1.381c-0.082,0.484-0.149,0.973-0.205,1.46
			c-0.053,0.27-0.092,0.501-0.12,0.692c-0.027,0.189-0.042,0.417-0.042,0.692c-0.053,0.267-0.082,0.5-0.082,0.686
			c0,0.194,0,0.392,0,0.609c0,0.272-0.011,0.504-0.04,0.694c-0.026,0.188-0.04,0.392-0.04,0.607c0,0.434,0.027,0.756,0.079,0.975
			c0,0.162,0.029,0.271,0.082,0.325c0,0.106,0.056,0.215,0.162,0.323l0.327,0.246l0.081,0.083h0.162
			c0.055,0,0.109,0.009,0.161,0.036c0.056,0.032,0.111,0.041,0.162,0.041c0.275,0.055,0.516,0.07,0.732,0.04
			c0.215-0.023,0.46-0.065,0.731-0.117c0.108,0,0.325-0.056,0.65-0.166c0.327-0.106,0.539-0.212,0.65-0.325
			c0.269-0.106,0.501-0.231,0.692-0.366c0.188-0.137,0.394-0.252,0.607-0.364c0.215-0.108,0.419-0.244,0.609-0.405
			c0.189-0.166,0.393-0.326,0.61-0.487l1.137-0.976l0.487-0.568c0.109-0.106,0.204-0.205,0.284-0.285
			c0.082-0.081,0.176-0.178,0.285-0.284c0.325-0.431,0.65-0.839,0.973-1.22c0.325-0.376,0.624-0.78,0.896-1.216
			c0.594-0.811,1.146-1.667,1.664-2.558c0.513-0.893,1.017-1.802,1.502-2.721l1.3-2.764l0.569-1.46
			c0.107-0.217,0.214-0.431,0.323-0.651c0.108-0.215,0.215-0.458,0.326-0.73c0.376-0.973,0.743-1.937,1.095-2.883
			C49.824,83.499,50.132,82.538,50.403,81.562z"/>
		<path fill="#FFFFFF" d="M62.91,104.71c0.217-0.865,0.437-1.707,0.649-2.519c0.219-0.812,0.461-1.648,0.732-2.515l1.463-4.876
			c0.541-1.678,1.081-3.328,1.621-4.952c0.545-1.629,1.114-3.226,1.708-4.795c0.597-1.623,1.19-3.246,1.787-4.872
			c0.595-1.627,1.245-3.221,1.949-4.792c0.703-1.57,1.436-3.127,2.192-4.669c0.759-1.544,1.57-3.1,2.438-4.671
			c0.271-0.541,0.676-0.881,1.221-1.016c0.538-0.135,1.081-0.068,1.621,0.203c0.542,0.271,0.881,0.679,1.017,1.219
			c0.134,0.541,0.065,1.081-0.205,1.623c0,0.056-0.026,0.083-0.081,0.083c-1.733,2.869-3.358,5.794-4.873,8.771l-2.193,4.546
			c0.436-0.756,0.853-1.489,1.261-2.193c0.404-0.7,0.823-1.404,1.257-2.11c0.486-0.812,0.985-1.61,1.503-2.396
			c0.513-0.783,1.044-1.554,1.585-2.315l1.705-2.275c0.269-0.376,0.554-0.741,0.852-1.095c0.299-0.352,0.61-0.716,0.937-1.096
			l0.973-1.058l1.057-0.972l1.135-0.976l1.381-0.733c0.216-0.106,0.486-0.212,0.812-0.323c0.326-0.108,0.598-0.163,0.812-0.163
			c0.215-0.052,0.541-0.082,0.975-0.082l0.976,0.245c0.433,0.217,0.757,0.434,0.973,0.65c0.273,0.271,0.489,0.569,0.651,0.894
			c0.162,0.271,0.284,0.568,0.366,0.893c0.079,0.325,0.174,0.623,0.284,0.893c0.052,0.27,0.096,0.543,0.123,0.812
			c0.024,0.271,0.04,0.545,0.04,0.813v0.812c0,0.325-0.027,0.569-0.082,0.731c0,0.975-0.137,1.949-0.407,2.924l-0.323,1.46
			l-0.407,1.38l-0.812,2.683l-0.975,2.679c-0.112,0.219-0.163,0.405-0.163,0.568l1.544-2.599c0.65-1.082,1.327-2.165,2.028-3.247
			c0.704-1.084,1.436-2.166,2.195-3.249l2.354-3.086c0.433-0.489,0.855-0.976,1.259-1.463c0.407-0.486,0.826-0.976,1.257-1.461
			c0.49-0.435,0.99-0.864,1.506-1.3c0.513-0.433,1.069-0.838,1.666-1.217l0.976-0.489l1.135-0.325h0.65
			c0.109-0.055,0.215-0.065,0.325-0.039c0.108,0.03,0.214,0.039,0.325,0.039c0.107,0.055,0.243,0.097,0.405,0.122
			c0.165,0.03,0.296,0.096,0.408,0.204c0.322,0.218,0.539,0.407,0.648,0.569c0.108,0.107,0.187,0.217,0.245,0.326
			c0.052,0.106,0.109,0.216,0.161,0.323c0.164,0.271,0.244,0.487,0.244,0.651c0.163,0.486,0.243,0.92,0.243,1.298
			c0.054,0.217,0.083,0.597,0.083,1.137c-0.058,0.218-0.083,0.569-0.083,1.056c-0.108,0.705-0.229,1.382-0.366,2.031
			c-0.137,0.648-0.311,1.298-0.527,1.949c-0.378,1.245-0.783,2.464-1.219,3.656c-0.434,1.19-0.868,2.409-1.299,3.654l-2.76,7.15
			c-0.489,1.192-0.949,2.368-1.385,3.531c-0.433,1.164-0.839,2.316-1.214,3.451c-0.219,0.436-0.407,1.032-0.571,1.791l-0.487,1.702
			c-0.111,0.275-0.176,0.543-0.202,0.812c-0.029,0.273-0.068,0.542-0.122,0.814l-0.161,0.809v0.733c0,0.273-0.017,0.498-0.042,0.693
			c-0.027,0.186-0.041,0.364-0.041,0.525c0,0.214,0.026,0.376,0.083,0.486c0,0.164,0.05,0.299,0.161,0.405
			c0.053,0.108,0.122,0.196,0.203,0.243c0.081,0.06,0.175,0.139,0.283,0.246c0.106,0,0.176,0.014,0.203,0.041
			c0.027,0.029,0.094,0.041,0.204,0.041c0.055,0.053,0.106,0.081,0.164,0.081h0.08l0.078,0.081c0.328,0,0.6-0.024,0.813-0.081
			c0.111,0,0.231-0.027,0.366-0.081c0.135-0.053,0.287-0.106,0.448-0.162c0.487-0.213,0.975-0.542,1.463-0.977l1.378-1.217
			l1.302-1.459c0.161-0.275,0.334-0.518,0.525-0.731c0.191-0.217,0.393-0.463,0.61-0.733l1.057-1.623
			c0.161-0.275,0.337-0.533,0.526-0.774c0.19-0.243,0.366-0.498,0.53-0.772c0.648-0.973,1.324-2.056,2.03-3.249l1.869-3.246
			l1.866-3.413l1.705-3.329l1.627-3.494c0.212-0.377,0.54-0.489,0.974-0.327c0.431,0.22,0.541,0.516,0.324,0.894v0.085l-1.705,3.407
			l-1.87,3.413c-0.27,0.598-0.568,1.152-0.893,1.668c-0.325,0.514-0.646,1.069-0.972,1.661l-1.949,3.332l-2.034,3.249l-1.135,1.544
			l-1.139,1.541c-0.434,0.541-0.868,1.058-1.298,1.547c-0.434,0.486-0.869,0.946-1.299,1.38c-0.436,0.486-0.895,0.949-1.382,1.38
			c-0.487,0.487-1.002,0.923-1.543,1.301l-0.975,0.487c-0.435,0.214-0.787,0.349-1.054,0.405c-0.109,0-0.167,0.027-0.167,0.079
			h-0.404c-0.161,0.055-0.378,0.081-0.65,0.081c-0.215,0-0.419,0-0.607,0c-0.191,0-0.422-0.026-0.691-0.081
			c-0.217-0.108-0.436-0.201-0.651-0.284c-0.217-0.081-0.458-0.201-0.73-0.368c-0.379-0.32-0.706-0.698-0.976-1.134
			c-0.161-0.214-0.282-0.434-0.364-0.651c-0.082-0.214-0.176-0.428-0.284-0.648l-0.244-1.218c0-0.217-0.015-0.417-0.04-0.612
			c-0.027-0.187-0.015-0.366,0.04-0.527v-1.138l0.325-2.109l0.975-3.901c0.756-2.382,1.652-4.844,2.681-7.391
			c0.485-1.189,0.986-2.365,1.502-3.531c0.513-1.163,1.043-2.315,1.585-3.454c0.271-0.595,0.525-1.176,0.768-1.744
			c0.246-0.571,0.502-1.15,0.773-1.747l1.383-3.493l0.65-1.705l0.566-1.706c0.217-0.594,0.351-1.111,0.407-1.542
			c0.053-0.164,0.083-0.376,0.083-0.65v-0.567l-0.083-0.083c-0.216-0.106-0.407-0.163-0.569-0.163c-0.595,0-1.108,0.111-1.542,0.328
			c-0.65,0.269-1.165,0.567-1.542,0.893c-0.273,0.161-0.515,0.337-0.731,0.527c-0.217,0.189-0.461,0.393-0.73,0.61
			c-0.434,0.435-0.854,0.879-1.261,1.341c-0.404,0.46-0.823,0.904-1.257,1.339c-0.435,0.487-0.841,0.988-1.218,1.503
			c-0.381,0.513-0.731,1.044-1.057,1.583c-1.462,2.005-2.816,4.14-4.062,6.417c-0.65,1.083-1.288,2.178-1.907,3.287
			c-0.625,1.113-1.236,2.236-1.828,3.375l-1.789,3.328l-1.217,2.438l-0.164,0.244l-0.65,1.787L84.6,97.155l-0.978,2.521
			c-0.161,0.433-0.325,0.85-0.487,1.257c-0.163,0.408-0.299,0.827-0.406,1.258l-0.325,1.301c-0.111,0.215-0.162,0.405-0.162,0.567
			l-0.084,0.325c-0.051,0.053-0.079,0.133-0.079,0.243c-0.109,0.597-0.405,1.058-0.893,1.38c-0.489,0.328-1.029,0.436-1.625,0.328
			c-0.541-0.114-0.975-0.379-1.299-0.812c-0.328-0.436-0.461-0.92-0.407-1.463l0.079-0.08v-0.409c0-0.052,0.014-0.106,0.042-0.161
			c0.027-0.053,0.04-0.106,0.04-0.161c0-0.216,0.055-0.487,0.164-0.811c0.052-0.275,0.093-0.518,0.122-0.733
			c0.026-0.217,0.094-0.461,0.202-0.73c0.109-0.433,0.229-0.896,0.366-1.38c0.134-0.491,0.286-0.947,0.45-1.383l0.971-2.682
			l0.977-2.596c0.651-1.736,1.325-3.452,2.029-5.161c0.705-1.702,1.409-3.425,2.11-5.154l1.06-2.602l0.975-2.517
			c0.161-0.433,0.323-0.867,0.487-1.301c0.159-0.43,0.294-0.865,0.405-1.296l0.893-2.519c0.106-0.434,0.215-0.854,0.325-1.258
			c0.109-0.407,0.216-0.826,0.325-1.26c0.106-0.215,0.164-0.407,0.164-0.569l0.161-0.649c0.055-0.214,0.094-0.405,0.122-0.569
			c0.027-0.162,0.039-0.351,0.039-0.569c0-0.43-0.025-0.729-0.079-0.891c0-0.163-0.027-0.269-0.082-0.326
			c0-0.053-0.027-0.108-0.079-0.161c-0.164-0.161-0.434-0.243-0.813-0.243c-0.164-0.055-0.325-0.055-0.487,0
			c-0.22,0-0.407,0.027-0.566,0.082c-0.437,0.106-0.79,0.269-1.058,0.485c-0.323,0.106-0.703,0.353-1.137,0.73l-0.975,0.813
			l-0.975,0.973c-1.139,1.248-2.274,2.683-3.413,4.305c-0.489,0.758-0.975,1.529-1.462,2.315c-0.487,0.785-0.946,1.583-1.38,2.396
			c-0.489,0.759-0.962,1.541-1.422,2.356c-0.463,0.811-0.907,1.621-1.341,2.435c-0.865,1.623-1.718,3.263-2.558,4.913
			c-0.84,1.653-1.638,3.319-2.397,4.995l-2.274,5.037c-0.811,1.735-1.542,3.438-2.192,5.118l-0.081,0.162l-0.73,2.192v0.08
			c-0.217,0.597-0.651,0.812-1.303,0.653c-0.27-0.106-0.472-0.271-0.607-0.484C62.819,105.225,62.801,104.982,62.91,104.71z"/>
	</g>
	<path clip-path="url(#SVGID_2_)" fill="#FFFFFF" d="M118.818,79.778c0,0,11.381-23.592,28.429-28.051
		c17.049-4.46-1.506,4.152-1.506,4.152l-1.219-1.238c0,0-10.884,0.495-24.541,25.876C118.818,79.778,118.818,79.778,118.818,79.778z
		"/>
	<path clip-path="url(#SVGID_2_)" fill="none" stroke="#58595B" stroke-width="0.2184" d="M143.994,52.829"/>
</g>
</svg>
