<svg id="Layer_1" data-name="Layer 1" xmlns="http://www.w3.org/2000/svg" viewBox="0 0 31.5 23.5"><line x1="1" y1="1" x2="30.5" y2="1" fill="#666d7d"/><path d="M32.77,8.67H3.27a1,1,0,1,1,0-2h29.5a1,1,0,0,1,0,2Z" transform="translate(-2.27 -6.67)" fill="#666d7d"/><line x1="1" y1="11.75" x2="30.5" y2="11.75" fill="#666d7d"/><path d="M32.77,19.42H3.27a1,1,0,1,1,0-2h29.5a1,1,0,0,1,0,2Z" transform="translate(-2.27 -6.67)" fill="#666d7d"/><line x1="1" y1="22.5" x2="30.5" y2="22.5" fill="#666d7d"/><path d="M32.77,30.17H3.27a1,1,0,0,1,0-2h29.5a1,1,0,0,1,0,2Z" transform="translate(-2.27 -6.67)" fill="#666d7d"/></svg>